<?xml version="1.0" encoding="UTF-8"?>
<svg id="Layer_2" data-name="Layer 2" xmlns="http://www.w3.org/2000/svg" viewBox="0 0 30 30">
  <defs>
    <style>
      .cls-1 {
        fill: #00b9ff;
        stroke-width: 0px;
      }
    </style>
  </defs>
  <g id="Layer_3" data-name="Layer 3">
    <g>
      <path class="cls-1" d="M15,9.77c-6.93,0-6.92,10.47,0,10.47,6.93,0,6.92-10.47,0-10.47Z"/>
      <path class="cls-1" d="M26.71,0H3.29C1.47,0,0,1.47,0,3.29v23.42c0,1.82,1.47,3.29,3.29,3.29h23.42c1.82,0,3.29-1.47,3.29-3.29V3.29C30,1.47,28.53,0,26.71,0ZM15,23.84c-4.89,0-8.85-3.96-8.85-8.85,0-4.89,3.96-8.85,8.85-8.85,4.89,0,8.84,3.96,8.84,8.85,0,4.89-3.96,8.85-8.84,8.85ZM24.33,8.24c-1.42,0-2.57-1.15-2.57-2.57,0-1.42,1.15-2.57,2.57-2.57,1.42,0,2.57,1.15,2.57,2.57,0,1.42-1.15,2.57-2.57,2.57Z"/>
    </g>
  </g>
</svg>