<?xml version="1.0" encoding="UTF-8"?>
<svg id="Layer_2" data-name="Layer 2" xmlns="http://www.w3.org/2000/svg" viewBox="0 0 180 29.19">
  <defs>
    <style>
      .cls-1 {
        fill: #f1f2f2;
        stroke-width: 0px;
      }
    </style>
  </defs>
  <g id="Layer_3" data-name="Layer 3">
    <g>
      <g>
        <path class="cls-1" d="M24.66,14.84c0-5.27,3.77-9.45,9.11-9.45,6.24,0,9.11,4.57,9.11,9.88,0,.4,0,.87-.03,1.3h-12.08c.5,1.97,1.94,2.97,3.91,2.97,1.5,0,2.7-.57,4.01-1.83l3.51,2.9c-1.74,2.2-4.24,3.67-7.85,3.67-5.67,0-9.68-3.77-9.68-9.44ZM36.94,13.34c-.23-2-1.4-3.27-3.14-3.27s-2.8,1.3-3.14,3.27h6.27Z"/>
        <path class="cls-1" d="M44.07,14.84c0-5.27,3.77-9.45,9.11-9.45,6.24,0,9.11,4.57,9.11,9.88,0,.4,0,.87-.03,1.3h-12.08c.5,1.97,1.94,2.97,3.91,2.97,1.5,0,2.7-.57,4.01-1.83l3.51,2.9c-1.74,2.2-4.24,3.67-7.85,3.67-5.67,0-9.68-3.77-9.68-9.44ZM56.35,13.34c-.23-2-1.4-3.27-3.14-3.27s-2.8,1.3-3.14,3.27h6.27Z"/>
        <path class="cls-1" d="M63.75,5.8h6.34v2.4c1.23-1.5,2.77-2.8,5.47-2.8,4.3,0,8.01,3.57,8.01,9.41s-3.7,9.44-7.98,9.44c-2.74,0-4.34-1.23-5.51-2.6v7.54h-6.34V5.8ZM77.34,14.78c0-2.37-1.64-4.07-3.71-4.07s-3.67,1.7-3.67,4.14,1.64,4.1,3.67,4.1,3.71-1.67,3.71-4.17Z"/>
      </g>
      <path class="cls-1" d="M11.41,0h-5.79c-.5,0-.75.6-.39.95l8.41,8.41,1.92-1.92c.36-.36.99-.11.99.41v8.69c0,.32-.26.58-.58.58H7.28c-.51,0-.77-.62-.41-.99l1.92-1.92L.95,6.37c-.35-.35-.95-.1-.95.39v17.09h11.93c6.97,0,12.55-5.99,11.87-13.1C23.21,4.55,17.64,0,11.41,0Z"/>
      <g>
        <path class="cls-1" d="M97.65,24v-2.21c-1.25,1.46-3.16,2.58-5.93,2.58-3.47,0-6.52-1.93-6.52-5.6,0-3.97,3.16-5.88,7.42-5.88,2.22,0,3.64.3,5.07.74v-.34c0-2.48-1.6-3.84-4.51-3.84-2.05,0-3.57.44-5.24,1.12l-1.14-3.3c2.01-.88,3.99-1.49,6.97-1.49,5.41,0,8.05,2.79,8.05,7.57v10.63h-4.16ZM97.76,16.49c-1.08-.41-2.57-.71-4.2-.71-2.64,0-4.2,1.05-4.2,2.85,0,1.7,1.56,2.65,3.54,2.65,2.77,0,4.86-1.53,4.86-3.77v-1.02Z"/>
        <path class="cls-1" d="M104.24,6.06h4.2v4.04c1.14-2.68,3.26-4.52,6.49-4.38v4.35h-.24c-3.68,0-6.24,2.34-6.24,7.1v6.83h-4.2V6.06Z"/>
        <path class="cls-1" d="M119.48,19.04v-9.44h-2.32v-3.53h2.32V1.14h4.2v4.93h4.93v3.53h-4.93v8.8c0,1.6.83,2.24,2.26,2.24.93,0,1.77-.21,2.6-.61v3.36c-1.04.58-2.22.92-3.78.92-3.09,0-5.27-1.33-5.27-5.27Z"/>
        <path class="cls-1" d="M131.07,17.48V6.06h4.2v10.19c0,2.79,1.42,4.38,3.92,4.38s4.13-1.67,4.13-4.45V6.06h4.2v17.94h-4.2v-2.79c-1.18,1.7-2.88,3.16-5.72,3.16-4.13,0-6.52-2.72-6.52-6.89Z"/>
        <path class="cls-1" d="M150.41,6.06h4.2v4.04c1.14-2.68,3.26-4.52,6.49-4.38v4.35h-.24c-3.68,0-6.24,2.34-6.24,7.1v6.83h-4.2V6.06Z"/>
        <path class="cls-1" d="M162.27,15.03c0-5.13,3.71-9.34,8.95-9.34,5.83,0,8.78,4.48,8.78,9.65,0,.27-.04.95-.07,1.15h-13.46c.45,2.92,2.57,4.55,5.27,4.55,2.05,0,3.5-.75,4.96-2.14l2.46,2.14c-1.73,2.04-4.13,3.36-7.5,3.36-5.31,0-9.4-3.77-9.4-9.38ZM175.84,13.77c-.28-2.65-1.87-4.72-4.65-4.72-2.57,0-4.37,1.94-4.75,4.72h9.4Z"/>
      </g>
    </g>
  </g>
</svg>