<?xml version="1.0" encoding="UTF-8"?>
<svg id="Layer_2" data-name="Layer 2" xmlns="http://www.w3.org/2000/svg" viewBox="0 0 22.22 21.21">
  <defs>
    <style>
      .cls-1 {
        fill: #0080ff;
        stroke-width: 0px;
      }
    </style>
  </defs>
  <g id="Layer_3" data-name="Layer 3">
    <path class="cls-1" d="M11.11,3.29l1.32,4.08c.33,1.01,1.26,1.69,2.32,1.69h4.29l-3.47,2.52c-.86.62-1.22,1.72-.89,2.73l1.32,4.08-3.47-2.52c-.42-.31-.92-.47-1.44-.47s-1.02.16-1.44.47l-3.47,2.52,1.32-4.08c.33-1.01-.03-2.11-.89-2.73l-3.47-2.52h4.29c1.06,0,2-.68,2.32-1.69l1.32-4.08M11.11,0c-.34,0-.68.19-.8.58l-2.04,6.29c-.11.35-.44.58-.8.58H.84c-.82,0-1.16,1.05-.5,1.53l5.35,3.89c.3.21.42.6.31.94l-2.04,6.29c-.19.59.28,1.11.8,1.11.16,0,.34-.05.49-.16l5.35-3.89c.15-.11.32-.16.5-.16s.35.05.5.16l5.35,3.89c.16.11.33.16.49.16.53,0,1-.52.8-1.11l-2.04-6.29c-.11-.35.01-.73.31-.94l5.35-3.89c.66-.48.32-1.53-.5-1.53h-6.62c-.37,0-.69-.24-.8-.58L11.91.58c-.13-.39-.46-.58-.8-.58h0Z"/>
  </g>
</svg>