<?xml version="1.0" encoding="UTF-8"?>
<svg id="Layer_2" data-name="Layer 2" xmlns="http://www.w3.org/2000/svg" viewBox="0 0 22.22 21.21">
  <defs>
    <style>
      .cls-1 {
        fill: #0080ff;
        stroke-width: 0px;
      }
    </style>
  </defs>
  <g id="Layer_3" data-name="Layer 3">
    <path class="cls-1" d="M10.61,17.16l-5.35,3.89c-.66.48-1.55-.17-1.3-.94l2.04-6.29c.11-.35-.01-.73-.31-.94L.35,8.98c-.66-.48-.32-1.53.5-1.53h6.62c.37,0,.69-.24.8-.58L10.31.58c.25-.78,1.35-.78,1.6,0l2.04,6.29c.11.35.44.58.8.58h6.62c.82,0,1.16,1.05.5,1.53l-5.35,3.89c-.3.21-.42.6-.31.94l2.04,6.29c.25.78-.64,1.42-1.3.94l-5.35-3.89c-.3-.21-.7-.21-.99,0Z"/>
  </g>
</svg>