<?xml version="1.0" encoding="UTF-8"?>
<svg id="Layer_2" data-name="Layer 2" xmlns="http://www.w3.org/2000/svg" viewBox="0 0 30 30">
  <defs>
    <style>
      .cls-1 {
        fill: #00b9ff;
        stroke-width: 0px;
      }
    </style>
  </defs>
  <g id="Layer_3" data-name="Layer 3">
    <path class="cls-1" d="M26.71,0H3.29C1.47,0,0,1.47,0,3.29v23.42c0,1.82,1.47,3.29,3.29,3.29h23.42c1.82,0,3.29-1.47,3.29-3.29V3.29c0-1.82-1.47-3.29-3.29-3.29ZM24.07,8.78c-.96,4.52-1.93,9.04-2.9,13.56-.05.24-.14.49-.26.7-.2.37-.54.51-.95.4-.22-.06-.44-.16-.62-.29-1.47-1.06-2.93-2.14-4.39-3.21-.13-.1-.2-.11-.33.01-.74.72-1.49,1.43-2.24,2.14-.22.21-.47.33-.81.33.05-.73.1-1.44.15-2.14.06-.81.12-1.62.18-2.44,0-.09.07-.2.13-.26,2.81-2.53,5.63-5.06,8.44-7.58.04-.04.1-.07.13-.12.04-.07.06-.16.09-.24-.08-.03-.18-.09-.25-.07-.16.04-.33.09-.47.18-3.01,1.87-6.01,3.75-9.01,5.63-.52.32-1.03.65-1.55.97-.08.05-.2.07-.29.04-1.49-.45-2.97-.92-4.45-1.39-.2-.06-.39-.16-.56-.28-.25-.18-.28-.46-.06-.67.2-.19.44-.37.7-.47,1.43-.57,2.86-1.11,4.29-1.66,4.6-1.76,9.2-3.52,13.81-5.28.11-.04.23-.08.34-.1.63-.1,1.08.27,1.07.93,0,.44-.11.88-.2,1.31Z"/>
  </g>
</svg>