<?xml version="1.0" encoding="UTF-8"?>
<svg id="Layer_2" data-name="Layer 2" xmlns="http://www.w3.org/2000/svg" viewBox="0 0 30 30">
  <defs>
    <style>
      .cls-1 {
        fill: #0080ff;
        stroke-width: 0px;
      }
    </style>
  </defs>
  <g id="Layer_3" data-name="Layer 3">
    <g>
      <polygon class="cls-1" points="15.32 13.53 10.31 6.26 7.71 6.26 13.85 15.25 14.64 16.41 19.57 23.62 22.28 23.62 16.12 14.68 15.32 13.53"/>
      <path class="cls-1" d="M26.71,0H3.29C1.47,0,0,1.47,0,3.29v23.42c0,1.82,1.47,3.29,3.29,3.29h23.42c1.82,0,3.29-1.47,3.29-3.29V3.29c0-1.82-1.47-3.29-3.29-3.29ZM18.9,24.87l-5.11-7.47-6.35,7.47h-1.79l7.35-8.63L5.32,5h5.65l5.2,7.53,6.42-7.53h1.76l-7.38,8.68,7.72,11.19h-5.78Z"/>
    </g>
  </g>
</svg>