<?xml version="1.0" encoding="UTF-8"?>
<svg id="Layer_2" data-name="Layer 2" xmlns="http://www.w3.org/2000/svg" viewBox="0 0 30 30">
  <defs>
    <style>
      .cls-1 {
        fill: #00b9ff;
        stroke-width: 0px;
      }
    </style>
  </defs>
  <g id="Layer_3" data-name="Layer 3">
    <path class="cls-1" d="M26.71,0H3.29C1.47,0,0,1.47,0,3.29v23.42c0,1.82,1.47,3.29,3.29,3.29h23.42c1.82,0,3.29-1.47,3.29-3.29V3.29c0-1.82-1.47-3.29-3.29-3.29ZM26.15,23.38c-.68,1.49-1.88,2.31-3.47,2.57-1.88.3-3.65-.14-5.38-.84-2.17-.89-4.1-2.17-5.86-3.69-2.39-2.06-4.39-4.44-5.85-7.26-.76-1.46-1.34-2.99-1.52-4.64-.17-1.53-.04-3.02.94-4.29.64-.84,1.48-1.42,2.56-1.55.9-.11,1.66.23,2.19.96.83,1.13,1.64,2.27,2.41,3.44.74,1.12.47,2.54-.6,3.36-.36.28-.75.53-1.16.82,2.06,2.89,4.5,5.34,7.4,7.39.25-.36.49-.69.72-1.03.54-.76,1.28-1.15,2.22-1.13.49.01.94.18,1.34.46,1.06.74,2.13,1.48,3.19,2.23,1.1.78,1.42,1.98.86,3.21Z"/>
  </g>
</svg>