<?xml version="1.0" encoding="UTF-8"?>
<svg id="Layer_2" data-name="Layer 2" xmlns="http://www.w3.org/2000/svg" viewBox="0 0 42.1 42.1">
  <defs>
    <style>
      .cls-1 {
        fill: #f1f2f2;
        stroke-width: 0px;
      }
    </style>
  </defs>
  <g id="Layer_3" data-name="Layer 3">
    <g>
      <path class="cls-1" d="M41.05,0h-20c-.28,0-.55.11-.74.31L.31,20.31c-.41.41-.41,1.07,0,1.48l20,20c.21.21.47.31.74.31s.54-.1.74-.31l20-20c.2-.2.31-.46.31-.74V1.05c0-.58-.47-1.05-1.05-1.05ZM40,20.62l-18.95,18.95L2.53,21.05,21.48,2.1h18.52v18.52Z"/>
      <path class="cls-1" d="M31.05,17.1c3.34,0,6.05-2.71,6.05-6.05s-2.71-6.05-6.05-6.05-6.05,2.71-6.05,6.05,2.71,6.05,6.05,6.05ZM31.05,7.1c2.18,0,3.95,1.77,3.95,3.95s-1.77,3.95-3.95,3.95-3.95-1.77-3.95-3.95,1.77-3.95,3.95-3.95Z"/>
    </g>
  </g>
</svg>