<?xml version="1.0" encoding="UTF-8"?>
<svg id="Layer_2" data-name="Layer 2" xmlns="http://www.w3.org/2000/svg" viewBox="0 0 42.1 42.1">
  <defs>
    <style>
      .cls-1 {
        fill: #f1f2f2;
        stroke-width: 0px;
      }
    </style>
  </defs>
  <g id="Layer_3" data-name="Layer 3">
    <path class="cls-1" d="M41.05,0H1.05C.47,0,0,.47,0,1.05v14.23c0,7.07,3.38,13.82,9.03,18.06l11.39,8.54s.09.05.14.07c.04.02.07.04.12.06.12.05.24.07.37.07s.25-.03.37-.07c.04-.02.08-.04.12-.06.05-.03.1-.04.14-.07l11.39-8.54c5.66-4.24,9.03-11,9.03-18.06V1.05c0-.58-.47-1.05-1.05-1.05ZM2.1,15.28V2.1h17.9v36.85l-9.71-7.28C5.16,27.82,2.1,21.7,2.1,15.28ZM40,15.28c0,6.41-3.06,12.54-8.19,16.38l-9.71,7.28V2.1h17.9v13.18Z"/>
  </g>
</svg>