<?xml version="1.0" encoding="UTF-8"?>
<svg id="Layer_2" data-name="Layer 2" xmlns="http://www.w3.org/2000/svg" viewBox="0 0 42.1 42.1">
  <defs>
    <style>
      .cls-1 {
        fill: #f1f2f2;
        stroke-width: 0px;
      }
    </style>
  </defs>
  <g id="Layer_3" data-name="Layer 3">
    <path class="cls-1" d="M21.05,0C9.44,0,0,9.44,0,21.05s9.44,21.05,21.05,21.05,21.05-9.44,21.05-21.05S32.66,0,21.05,0ZM39.95,20h-2.94c-.5-2.84-2.98-5-5.96-5s-5.46,2.16-5.96,5h-2.99v-5h-1.05c-2.18,0-3.95-1.77-3.95-3.95s1.77-3.95,3.95-3.95h1.05V2.15c9.61.53,17.32,8.24,17.85,17.85ZM20,2.15v2.94c-2.84.5-5,2.98-5,5.96s2.16,5.46,5,5.96v2.99h-5v1.05c0,2.18-1.77,3.95-3.95,3.95s-3.95-1.77-3.95-3.95v-1.05H2.15C2.68,10.39,10.39,2.68,20,2.15ZM2.15,22.1h2.94c.5,2.84,2.98,5,5.96,5s5.46-2.16,5.96-5h2.99v5h1.05c2.18,0,3.95,1.77,3.95,3.95s-1.77,3.95-3.95,3.95h-1.05v4.95c-9.61-.53-17.32-8.24-17.85-17.85ZM22.1,39.95v-2.94c2.84-.5,5-2.98,5-5.96s-2.16-5.46-5-5.96v-2.99h5v-1.05c0-2.18,1.77-3.95,3.95-3.95s3.95,1.77,3.95,3.95v1.05h4.95c-.53,9.61-8.24,17.32-17.85,17.85Z"/>
  </g>
</svg>