<?xml version="1.0" encoding="UTF-8"?>
<svg id="Layer_2" data-name="Layer 2" xmlns="http://www.w3.org/2000/svg" viewBox="0 0 42.1 42.1">
  <defs>
    <style>
      .cls-1 {
        fill: #f1f2f2;
        stroke-width: 0px;
      }
    </style>
  </defs>
  <g id="Layer_3" data-name="Layer 3">
    <g>
      <path class="cls-1" d="M21.05,10c-6.09,0-11.05,4.96-11.05,11.05s4.96,11.05,11.05,11.05,11.05-4.96,11.05-11.05-4.96-11.05-11.05-11.05ZM21.05,30c-4.94,0-8.95-4.02-8.95-8.95s4.02-8.95,8.95-8.95,8.95,4.02,8.95,8.95-4.02,8.95-8.95,8.95Z"/>
      <path class="cls-1" d="M41.05,15h-5.15c-.02-.06-.05-.12-.07-.17l3.64-3.64c.41-.41.41-1.07,0-1.48l-7.07-7.07c-.39-.39-1.09-.39-1.49,0l-3.64,3.64c-.06-.02-.12-.05-.17-.07V1.05c0-.58-.47-1.05-1.05-1.05h-10c-.58,0-1.05.47-1.05,1.05v5.15c-.06.02-.12.05-.17.07l-3.64-3.64c-.2-.2-.46-.31-.74-.31s-.55.11-.74.31l-7.07,7.07c-.41.41-.41,1.07,0,1.48l3.64,3.64c-.02.06-.05.12-.07.17H1.05c-.58,0-1.05.47-1.05,1.05v10c0,.58.47,1.05,1.05,1.05h5.15c.02.06.05.12.07.17l-3.64,3.64c-.2.2-.31.46-.31.74s.11.55.31.74l7.07,7.07c.41.41,1.08.41,1.48,0l3.64-3.64c.06.02.12.05.17.07v5.15c0,.58.47,1.05,1.05,1.05h10c.58,0,1.05-.47,1.05-1.05v-5.15c.06-.02.12-.05.17-.07l3.64,3.64c.41.41,1.08.41,1.49,0l7.07-7.07c.2-.2.31-.46.31-.74s-.11-.55-.31-.74l-3.64-3.64c.02-.06.05-.12.07-.17h5.15c.58,0,1.05-.47,1.05-1.05v-10c0-.58-.47-1.05-1.05-1.05ZM40,25h-4.82c-.44,0-.84.28-.99.7-.16.46-.35.91-.56,1.35-.19.4-.11.88.21,1.2l3.41,3.41-5.59,5.59-3.41-3.41c-.31-.31-.79-.4-1.2-.21-.44.21-.89.4-1.35.56-.42.15-.7.54-.7.99v4.82h-7.9v-4.82c0-.44-.28-.84-.7-.99-.46-.16-.92-.35-1.35-.56-.4-.19-.88-.11-1.2.21l-3.41,3.41-5.59-5.59,3.41-3.41c.31-.31.4-.79.21-1.2-.21-.44-.4-.9-.56-1.35-.15-.42-.54-.7-.99-.7H2.1v-7.9h4.82c.44,0,.84-.28.99-.7.16-.45.35-.91.56-1.35.19-.4.11-.88-.2-1.2l-3.41-3.41,5.59-5.59,3.41,3.41c.32.32.79.4,1.2.21.44-.21.89-.4,1.35-.56.42-.15.7-.54.7-.99V2.1h7.9v4.82c0,.44.28.84.7.99.46.16.92.35,1.35.56.4.19.88.11,1.2-.21l3.41-3.41,5.59,5.59-3.41,3.41c-.31.31-.4.79-.2,1.2.21.44.4.89.56,1.35.15.42.54.7.99.7h4.82v7.9Z"/>
    </g>
  </g>
</svg>